<svg height="370pt" viewBox="0 -16 370.29055 370" width="370pt" xmlns="http://www.w3.org/2000/svg"><g fill="#63316d"><path d="m330.582031.144531h-134.203125c-22.015625-.1210935-39.964844 17.628907-40.089844 39.644531v35.707032c0 5.523437 4.476563 10 10 10 5.523438 0 10-4.476563 10-10v-35.648438c.082032-10.960937 9.03125-19.78125 19.992188-19.703125h134.300781c10.78125-.101562 19.605469 8.550781 19.707031 19.332031v.371094 258.597656c.101563 10.78125-8.558593 19.601563-19.339843 19.699219h-134.570313c-10.957031.136719-19.953125-8.636719-20.089844-19.597656v-35c0-5.523437-4.476562-10-10-10-5.523437 0-10 4.476563-10 10v34.898437c.09375 22.019532 18.019532 39.792969 40.035157 39.699219h134.257812c21.835938.09375 39.617188-17.535156 39.707031-39.375v-258.921875c.089844-21.839844-17.546874-39.613281-39.382812-39.703125zm0 0"/><path d="m34.320312 179.144531h236.671876c5.519531 0 10-4.476562 10-10 0-5.519531-4.480469-10-10-10h-238.894532l51.300782-59.113281c2.402343-2.65625 3.203124-6.390625 2.097656-9.796875-1.105469-3.40625-3.949219-5.960937-7.453125-6.699219-3.503907-.734375-7.132813.457032-9.519531 3.125-.078126.085938-.152344.171875-.222657.261719l-64.679687 74.523437c-2.375 1.964844-3.7109378 4.914063-3.61718775 7.992188.09374995 3.082031 1.60156275 5.945312 4.08984375 7.761719l64.683594 64.6875c3.917968 3.839843 10.195312 3.8125 14.074218-.066407 3.882813-3.878906 3.910157-10.160156.070313-14.074218zm0 0"/></g></svg>