<?xml version="1.0" encoding="UTF-8"?>
<svg xmlns="http://www.w3.org/2000/svg" xmlns:xlink="http://www.w3.org/1999/xlink" viewBox="0 0 48 48" width="48px" height="48px">
<g id="surface20504793">
<path style=" stroke:none;fill-rule:nonzero;fill:rgb(90.588236%,29.803923%,23.529412%);fill-opacity:1;" d="M 9.980469 7.980469 C 9.167969 7.980469 8.433594 8.472656 8.128906 9.226562 C 7.820312 9.980469 8.003906 10.847656 8.585938 11.414062 L 21.171875 24 L 8.585938 36.585938 C 8.0625 37.085938 7.851562 37.832031 8.035156 38.535156 C 8.21875 39.234375 8.765625 39.78125 9.464844 39.964844 C 10.167969 40.148438 10.914062 39.9375 11.414062 39.414062 L 24 26.828125 L 36.585938 39.414062 C 37.085938 39.9375 37.832031 40.148438 38.535156 39.964844 C 39.234375 39.78125 39.78125 39.234375 39.964844 38.535156 C 40.148438 37.832031 39.9375 37.085938 39.414062 36.585938 L 26.828125 24 L 39.414062 11.414062 C 40.003906 10.839844 40.183594 9.960938 39.863281 9.199219 C 39.539062 8.441406 38.785156 7.957031 37.960938 7.980469 C 37.441406 7.996094 36.949219 8.214844 36.585938 8.585938 L 24 21.171875 L 11.414062 8.585938 C 11.039062 8.199219 10.519531 7.980469 9.980469 7.980469 Z M 9.980469 7.980469 "/>
</g>
</svg>
